PathFileType	4	(X/Y/Z)	walk-thru1-4-TP.trc
DataRate	CameraRate	NumFrames	NumMarkers	Units	OrigDataRate	OrigDataStartFrame	OrigNumFrames
120.00	120.00	       4	60	mm	120.00	321	       512
Frame#	Time	Top.Head			Front.Head			Rear.Head			Jaw			C7			R.Clavicle			L.Clavicle			R.Shoulder			L.Shoulder			R.Scapula			L.Scapula			R.Scap.Inf			R.Biceps.Lateral			R.Elbow			R.Elbow.Medial			R.Forearm			R.Ulna			R.Radius			R.Wrist			R.Thumb.M1			R.Thumb.M2			R.Thumb.M3			R.Finger3.M1			R.Finger3.M2			R.Finger3.M3			L.Biceps.Lateral			L.Elbow			L.Elbow.Medial			L.Forearm			L.Ulna			L.Radius			L.Wrist			L.Thumb.M1			L.Thumb.M2			L.Thumb.M3			L.Finger3.M1			L.Finger3.M2			L.Finger3.M3			V.Sacral			R.ASIS			L.ASIS			R.Thigh			R.Thigh.Front			R.Knee			R.Knee.Medial			R.Shank			R.Ankle			R.Ankle.Medial			R.Heel			R.Toe			R.MedFoot			L.Thigh			L.Knee			L.Knee.Medial			L.Shank			L.Ankle			L.Ankle.Medial			L.Heel			L.Toe			L.MedFoot			V_mid_ASIS			V_R_Knee_JC			V_L_Knee_JC			V_R_Elbow_JC			V_L_Elbow_JC			V_R_Ankle_JC			V_L_Ankle_JC			V_R_Wrist_JC			V_L_Wrist_JC			V_R_ScaTrpz_1stMC_JC			V_R_1stMC_1stPP_JC			V_R_1stPP_1stDP_JC			V_R_LunCap_3rdMC_JC			V_R_3rdMC_3rdPP_JC			V_R_3rdPP_3rdMP_JC			V_R_3rdMP_3rdDP_JC			V_L_ScaTrpz_1stMC_JC			V_L_1stMC_1stPP_JC			V_L_1stPP_1stDP_JC			V_L_LunCap_3rdMC_JC			V_L_3rdMC_3rdPP_JC			V_L_3rdPP_3rdMP_JC			V_L_3rdMP_3rdPP_JC			V_ROOT_JC			V_R_Hip_JC			V_L_Hip_JC			V_R_GlenHum_JC			V_L_GlenHum_JC			V_ForeHead_Ctr			V_Vertex			V_Sagit_Lambdoid_Suture			V_R_FrontoTemp			V_L_FrontoTemporal			V_R_ParietalOccip			V_L_ParietalOcciptal			V_R_Temporal			V_L_Temporal			V_mid_FrontRearHead			V_mid_RLGlenHumCtrs			V_C7_vert			V_C1_vert			V_Mid_Hip			
		X1	Y1	Z1	X2	Y2	Z2	X3	Y3	Z3	X4	Y4	Z4	X5	Y5	Z5	X6	Y6	Z6	X7	Y7	Z7	X8	Y8	Z8	X9	Y9	Z9	X10	Y10	Z10	X11	Y11	Z11	X12	Y12	Z12	X13	Y13	Z13	X14	Y14	Z14	X15	Y15	Z15	X16	Y16	Z16	X17	Y17	Z17	X18	Y18	Z18	X19	Y19	Z19	X20	Y20	Z20	X21	Y21	Z21	X22	Y22	Z22	X23	Y23	Z23	X24	Y24	Z24	X25	Y25	Z25	X26	Y26	Z26	X27	Y27	Z27	X28	Y28	Z28	X29	Y29	Z29	X30	Y30	Z30	X31	Y31	Z31	X32	Y32	Z32	X33	Y33	Z33	X34	Y34	Z34	X35	Y35	Z35	X36	Y36	Z36	X37	Y37	Z37	X38	Y38	Z38	X39	Y39	Z39	X40	Y40	Z40	X41	Y41	Z41	X42	Y42	Z42	X43	Y43	Z43	X44	Y44	Z44	X45	Y45	Z45	X46	Y46	Z46	X47	Y47	Z47	X48	Y48	Z48	X49	Y49	Z49	X50	Y50	Z50	X51	Y51	Z51	X52	Y52	Z52	X53	Y53	Z53	X54	Y54	Z54	X55	Y55	Z55	X56	Y56	Z56	X57	Y57	Z57	X58	Y58	Z58	X59	Y59	Z59	X60	Y60	Z60	

321	2.667	578.40314	20.10490	1805.92847	674.68036	21.37622	1690.24268	448.19241	25.13190	1711.79822	625.02972	18.31027	1525.72156	432.80099	31.15117	1576.38550	517.56165	-92.98636	1481.78748	548.34021	132.24197	1482.15332	469.69937	-178.16487	1478.21118	491.17380	234.21049	1492.07568	371.46997	-54.01945	1495.73218	386.84235	115.91140	1496.25623	321.21780	-60.30069	1409.58337	404.82953	-234.11002	1306.50012	357.39868	-249.16779	1156.64673	347.25943	-158.33673	1138.25757	442.44867	-208.95302	1036.72778	399.09909	-248.37854	937.14886	465.60397	-195.38724	904.64203	455.01776	-233.76018	857.94373	475.16785	-189.90907	870.63257	511.57697	-162.81206	823.73987	547.62891	-166.90140	794.53284	492.39383	-242.15424	785.81213	509.80359	-204.44710	733.01575	500.62540	-158.21068	708.98383	483.67810	300.29434	1341.92249	490.33276	344.68463	1165.73315	436.37436	286.48785	1142.19434	567.85944	305.08261	1072.60352	536.61597	329.12668	976.01740	605.81512	266.22769	940.73059	613.65076	297.78802	883.15112	624.21545	248.87988	879.06305	624.87372	212.05281	830.14709	640.22760	214.40425	771.22217	644.73102	307.54684	812.15076	639.54523	287.62726	755.17102	622.04089	269.04660	708.00867	325.86716	39.41714	1099.44678	405.98016	-159.21391	1045.67749	435.38107	215.03522	1035.41455	569.04187	-145.51974	659.90295	664.60706	-64.12742	597.24915	613.15045	-127.26228	537.12573	613.18530	-8.00222	530.27539	595.40100	-92.99358	353.85327	456.77966	-130.36696	119.42123	498.94717	-35.41980	130.93558	398.45142	-69.92245	102.08012	621.43549	-97.29781	66.81767	569.24261	-55.05499	91.74634	455.40015	180.60429	649.86591	468.49326	148.95586	501.78278	470.37314	33.84150	507.37781	456.92374	89.90052	305.35327	338.85431	97.02496	70.22417	374.36145	5.09646	112.44210	287.16800	33.33986	60.64224	523.72028	60.25051	46.42053	461.12360	27.39217	72.25591																																																																																																																															
322	2.675	582.63159	19.56469	1805.60376	679.80389	21.07476	1690.10095	452.79175	24.98105	1711.84424	629.42938	17.47489	1525.45740	436.77747	29.84140	1575.78772	522.92413	-93.13288	1481.57788	553.23151	131.86397	1481.78040	474.14072	-178.10971	1478.48535	495.97665	234.05360	1491.23816	376.67401	-53.83275	1495.87622	391.70404	116.27228	1495.37964	325.81558	-60.41122	1409.76453	409.53763	-234.14995	1305.85718	363.50433	-250.01544	1156.32947	351.76675	-159.27046	1138.35339	446.74744	-208.55367	1036.81494	404.64868	-248.07254	937.47034	471.02579	-194.05885	904.58990	460.42310	-233.19052	857.67719	479.98233	-189.33229	870.06512	518.14825	-164.07239	824.46814	553.12970	-166.65471	794.17432	501.61658	-243.18768	787.13251	515.92914	-204.14821	732.55188	505.77786	-157.59950	708.95764	489.46829	299.43781	1341.49072	497.01617	344.11084	1165.42358	442.23016	287.47083	1142.34045	572.79138	305.58899	1073.25134	542.88776	328.43695	975.00769	611.52472	265.11655	940.05457	620.94513	296.32324	882.99042	628.09595	249.09818	878.94049	628.48584	211.54794	830.70862	645.50208	213.83543	770.74634	650.94415	305.85681	811.79004	646.08337	286.05215	754.76807	628.81866	268.16000	708.92267	330.44006	39.87682	1099.59668	411.31210	-160.39539	1045.35168	439.83768	215.40962	1035.63452	573.58441	-145.52759	659.45648	668.83813	-64.33233	597.23193	617.86932	-127.11223	536.84747	618.32721	-7.72651	530.31372	606.05652	-92.87687	353.45624	475.22861	-130.50587	114.22054	517.96692	-35.53766	127.65453	416.28198	-71.49165	95.66673	641.53491	-96.65383	67.30249	588.67255	-55.99430	90.53677	457.83786	180.27130	649.31244	470.27951	148.76955	501.33044	471.17062	34.04137	507.51700	457.78085	89.30949	304.94760	339.09763	96.76286	70.44330	374.63718	5.08983	112.45109	287.43753	33.97305	61.23931	524.01044	60.35679	46.56275	461.35327	27.38723	72.06618																																																																																																																															
323	2.683	587.77783	20.05575	1805.68689	684.74896	19.95746	1690.49414	458.23663	25.75367	1710.72058	634.98700	17.87446	1526.03088	442.83911	29.15148	1575.24231	527.93292	-94.36757	1481.01184	557.68365	131.30040	1481.88635	479.58405	-179.15500	1478.45752	500.68967	232.85187	1491.65320	381.82568	-54.47238	1495.66675	396.89868	116.30439	1494.79871	331.09903	-62.30333	1409.21460	415.71960	-235.91942	1305.12830	368.52551	-249.55405	1155.87598	359.54648	-161.15938	1138.59509	453.04614	-209.70126	1036.38330	410.51315	-249.49303	937.09344	476.98547	-195.34999	904.02356	465.97757	-232.53256	857.43915	487.98511	-191.60094	870.31323	523.05652	-164.21466	824.41394	559.26764	-167.21513	794.62061	507.74039	-243.40118	786.43195	521.58630	-204.50290	732.17523	513.09467	-158.14413	708.73248	494.08847	299.25427	1341.17505	501.04745	344.54590	1164.62952	446.72061	286.95328	1140.89563	579.71625	303.28101	1073.22681	548.14594	329.25513	974.71936	616.79651	264.66956	940.25763	626.26349	295.95950	882.24609	634.79877	247.46944	879.01630	634.45178	211.03912	831.36292	651.96301	213.70975	771.05817	656.43066	305.98560	812.12958	651.14661	285.13284	754.81476	633.56110	266.35703	708.55206	335.96259	38.47218	1099.28394	418.46225	-160.30817	1045.01672	444.51007	216.21326	1035.63892	577.09955	-146.76140	659.01868	672.44391	-64.63955	596.60352	622.32928	-127.49719	536.30090	621.63995	-8.92775	529.50452	616.12854	-92.88366	353.94293	493.66531	-131.92241	109.89807	534.07751	-36.54301	124.32222	433.72812	-71.02834	90.22847	661.39203	-95.84067	67.85750	607.46680	-56.32428	89.63565	460.80240	179.57924	649.64978	472.19803	148.62520	501.64526	474.29578	34.58329	507.10721	459.42801	88.67528	305.24857	339.15445	96.75722	70.56582	373.94394	4.42157	113.12300	287.23193	33.98199	61.53471	524.01044	60.35679	46.56275	460.92905	27.38072	71.86390																																																																																																																															
324	2.692	592.33167	19.31138	1805.41296	689.34723	19.86681	1689.99866	463.15067	25.95003	1710.74426	639.93951	17.38459	1525.68799	446.75766	28.26373	1574.42358	532.94574	-95.29775	1481.15918	562.50812	131.32269	1481.43738	484.38834	-179.04358	1478.49512	505.77130	232.20511	1490.93994	386.99335	-55.58048	1494.71350	401.88861	115.09670	1494.65564	335.93188	-60.86154	1409.26563	420.43164	-235.42693	1305.15576	373.99603	-249.56233	1154.84082	364.28842	-159.32558	1137.80688	457.72406	-209.56735	1035.32495	416.15149	-249.09634	936.63318	480.64890	-194.28888	902.72412	471.89926	-233.85361	857.16296	492.02808	-189.70943	869.42822	529.06921	-162.66397	822.45135	564.14124	-166.44937	794.19519	512.63226	-242.85934	786.11774	526.56067	-204.57787	732.73810	517.83685	-159.05722	708.20569	499.88281	298.86542	1342.01929	507.03223	344.65317	1165.03931	453.04977	285.60165	1140.83752	584.85175	303.60141	1073.02991	553.76355	328.52362	974.80908	621.49487	264.93225	940.20551	630.53912	297.00424	882.38550	643.55273	248.42601	878.83398	639.31415	210.31178	830.66901	655.86322	212.40561	770.95319	660.65057	304.80948	812.23590	656.59918	284.50967	754.29980	639.26270	266.60580	708.44910	341.10291	38.28867	1098.76831	418.55106	-161.73712	1044.67737	450.20691	214.74448	1035.86829	579.77454	-147.59354	657.97949	675.98523	-64.90025	595.89948	626.58441	-127.54861	535.59546	626.81750	-8.70117	529.01794	625.19165	-95.20981	353.29370	512.09058	-132.71399	105.16182	550.41937	-38.86895	122.36268	454.14117	-73.21581	84.03833	680.47314	-95.62194	67.96187	626.03302	-56.07785	88.99250	463.48376	178.85837	649.34503	474.10260	148.35692	501.51273	475.63168	34.55088	507.02972	460.61157	89.19153	304.43649	339.05069	96.67749	71.03020	375.27820	5.97639	112.71954	286.79352	33.85258	62.13727	524.01044	60.35679	46.56275	461.03537	27.37603	72.24009																																																																																																																															
